<svg xmlns="http://www.w3.org/2000/svg" viewBox="0 0 960 540" role="img" aria-label="volume cubes">
    <defs>
      <marker id="arrow" viewBox="0 0 10 10" refX="8" refY="5"
              markerWidth="8" markerHeight="8" orient="auto-start-reverse">
        <path d="M 0 0 L 10 5 L 0 10 z" fill="#223042"/>
      </marker>
    </defs>
    <rect width="960" height="540" fill="#FFF7ED"/><rect x="160" y="110" width="640" height="320" rx="28" fill="#FFFFFF" stroke="#223042" stroke-width="4"/><rect x="320" y="290" width="70" height="70" rx="10" fill="#38B8C5" stroke="#223042" stroke-width="4"/><line x1="320" y1="290" x2="345" y2="270" stroke="#223042" stroke-width="3" stroke-linecap="round"/><line x1="390" y1="290" x2="415" y2="270" stroke="#223042" stroke-width="3" stroke-linecap="round"/><line x1="415" y1="270" x2="415" y2="340" stroke="#223042" stroke-width="3" stroke-linecap="round"/><line x1="345" y1="270" x2="415" y2="270" stroke="#223042" stroke-width="3" stroke-linecap="round"/><rect x="390" y="290" width="70" height="70" rx="10" fill="#38B8C5" stroke="#223042" stroke-width="4"/><line x1="390" y1="290" x2="415" y2="270" stroke="#223042" stroke-width="3" stroke-linecap="round"/><line x1="460" y1="290" x2="485" y2="270" stroke="#223042" stroke-width="3" stroke-linecap="round"/><line x1="485" y1="270" x2="485" y2="340" stroke="#223042" stroke-width="3" stroke-linecap="round"/><line x1="415" y1="270" x2="485" y2="270" stroke="#223042" stroke-width="3" stroke-linecap="round"/><rect x="460" y="290" width="70" height="70" rx="10" fill="#38B8C5" stroke="#223042" stroke-width="4"/><line x1="460" y1="290" x2="485" y2="270" stroke="#223042" stroke-width="3" stroke-linecap="round"/><line x1="530" y1="290" x2="555" y2="270" stroke="#223042" stroke-width="3" stroke-linecap="round"/><line x1="555" y1="270" x2="555" y2="340" stroke="#223042" stroke-width="3" stroke-linecap="round"/><line x1="485" y1="270" x2="555" y2="270" stroke="#223042" stroke-width="3" stroke-linecap="round"/><rect x="355" y="230" width="70" height="70" rx="10" fill="#38B8C5" stroke="#223042" stroke-width="4"/><line x1="355" y1="230" x2="380" y2="210" stroke="#223042" stroke-width="3" stroke-linecap="round"/><line x1="425" y1="230" x2="450" y2="210" stroke="#223042" stroke-width="3" stroke-linecap="round"/><line x1="450" y1="210" x2="450" y2="280" stroke="#223042" stroke-width="3" stroke-linecap="round"/><line x1="380" y1="210" x2="450" y2="210" stroke="#223042" stroke-width="3" stroke-linecap="round"/><rect x="425" y="230" width="70" height="70" rx="10" fill="#38B8C5" stroke="#223042" stroke-width="4"/><line x1="425" y1="230" x2="450" y2="210" stroke="#223042" stroke-width="3" stroke-linecap="round"/><line x1="495" y1="230" x2="520" y2="210" stroke="#223042" stroke-width="3" stroke-linecap="round"/><line x1="520" y1="210" x2="520" y2="280" stroke="#223042" stroke-width="3" stroke-linecap="round"/><line x1="450" y1="210" x2="520" y2="210" stroke="#223042" stroke-width="3" stroke-linecap="round"/><rect x="390" y="170" width="70" height="70" rx="10" fill="#38B8C5" stroke="#223042" stroke-width="4"/><line x1="390" y1="170" x2="415" y2="150" stroke="#223042" stroke-width="3" stroke-linecap="round"/><line x1="460" y1="170" x2="485" y2="150" stroke="#223042" stroke-width="3" stroke-linecap="round"/><line x1="485" y1="150" x2="485" y2="220" stroke="#223042" stroke-width="3" stroke-linecap="round"/><line x1="415" y1="150" x2="485" y2="150" stroke="#223042" stroke-width="3" stroke-linecap="round"/></svg>